<svg width="24" height="24" viewBox="0 0 24 24" fill="none" xmlns="http://www.w3.org/2000/svg">
<rect width="24" height="24" rx="12" fill="#F0F0F0"/>
<path fill-rule="evenodd" clip-rule="evenodd" d="M7.62356 7.62356C7.78832 7.45881 8.05543 7.45881 8.22019 7.62356L12 11.4032L15.7798 7.62356C15.9296 7.47379 16.164 7.46017 16.3291 7.58272L16.3764 7.62356C16.5412 7.78832 16.5412 8.05543 16.3764 8.22019L12.5968 12L16.3764 15.7798C16.5262 15.9296 16.5398 16.164 16.4173 16.3291L16.3764 16.3764C16.2117 16.5412 15.9446 16.5412 15.7798 16.3764L12 12.5968L8.22019 16.3764C8.07041 16.5262 7.83604 16.5398 7.67088 16.4173L7.62356 16.3764C7.45881 16.2117 7.45881 15.9446 7.62356 15.7798L11.4032 12L7.62356 8.22019C7.47379 8.07041 7.46017 7.83604 7.58272 7.67088L7.62356 7.62356Z" fill="#212121"/>
</svg>
