<svg width="20" height="20" viewBox="0 0 20 20" fill="none" xmlns="http://www.w3.org/2000/svg">
<path fill-rule="evenodd" clip-rule="evenodd" d="M18.3334 10C18.3334 14.6024 14.6025 18.3333 10.0001 18.3333C5.39771 18.3333 1.66675 14.6024 1.66675 10C1.66675 5.39763 5.39771 1.66667 10.0001 1.66667C14.6025 1.66667 18.3334 5.39763 18.3334 10ZM2.70841 10C2.70841 14.0271 5.973 17.2917 10.0001 17.2917C14.0272 17.2917 17.2917 14.0271 17.2917 10C17.2917 5.97293 14.0272 2.70834 10.0001 2.70834C5.973 2.70834 2.70841 5.97293 2.70841 10ZM8.95841 6.61459C8.95841 7.04606 9.30819 7.39584 9.73967 7.39584C10.1711 7.39584 10.5209 7.04606 10.5209 6.61459C10.5209 6.21188 10.2162 5.88034 9.82479 5.83792L9.73936 5.83334C9.30803 5.8335 8.95841 6.18322 8.95841 6.61459ZM11.5626 12.6042H11.0417C10.7541 12.6042 10.5209 12.371 10.5209 12.0833V9.47917C10.5209 8.90387 10.0545 8.4375 9.47925 8.4375H8.95841C8.67077 8.4375 8.43758 8.67069 8.43758 8.95834C8.43758 9.24599 8.67077 9.47917 8.95841 9.47917H9.47925V12.0833C9.47925 12.9463 10.1788 13.6458 11.0417 13.6458H11.5626C11.8502 13.6458 12.0834 13.4127 12.0834 13.125C12.0834 12.8374 11.8502 12.6042 11.5626 12.6042Z" fill="#666666"/>
</svg>
